<svg height="512pt" viewBox="-8 0 512 512" width="512pt" xmlns="http://www.w3.org/2000/svg"><path d="m248 8c8.800781 0 16 7.199219 16 16s-7.199219 16-16 16-16-7.199219-16-16 7.199219-16 16-16zm0 0" fill="#ed5565"/><path d="m472 424v80h-448v-80c0-8.878906 7.121094-16 16-16h416c8.878906 0 16 7.121094 16 16zm0 0" fill="#656d78"/><path d="m456 408h-32c8.878906 0 16 7.121094 16 16v80h32v-80c0-8.878906-7.121094-16-16-16zm0 0" fill="#434a54"/><path d="m428.238281 341.839844c-7.519531-20.558594-18.558593-39.601563-32.238281-56.167969-11.199219-13.441406-24.078125-25.359375-38.398438-35.28125-14-9.757813-29.28125-17.679687-45.601562-23.4375-6.800781-2.402344-13.839844-4.488281-20.960938-6-13.839843-3.273437-28.238281-4.953125-43.039062-4.953125s-29.199219 1.679688-43.039062 4.960938c-30 6.800781-57.359376 20.71875-80.167969 39.832031-9.039063 7.519531-17.273438 15.839843-24.800781 24.878906-16.878907 20.398437-29.601563 44.398437-36.878907 70.640625-4.632812 16.488281-7.113281 33.765625-7.113281 51.6875h384c0-23.199219-4.160156-45.519531-11.761719-66.160156zm0 0" fill="#ed5565"/><path d="m428.238281 341.839844c-7.519531-20.558594-18.558593-39.601563-32.238281-56.167969-11.199219-13.441406-24.078125-25.359375-38.398438-35.28125-14-9.757813-29.28125-17.679687-45.601562-23.4375-6.800781-2.402344-13.839844-4.488281-20.960938-6-13.839843-3.273437-28.238281-4.953125-43.039062-4.953125-5.398438 0-10.71875.296875-16 .742188 9.199219.777343 18.246094 2.136718 27.039062 4.21875 7.121094 1.511718 14.167969 3.597656 20.960938 6 16.320312 5.757812 31.601562 13.679687 45.601562 23.4375 14.320313 9.921874 27.191407 21.839843 38.398438 35.28125 13.679688 16.558593 24.71875 35.601562 32.238281 56.167968 7.601563 20.632813 11.761719 42.953125 11.761719 66.152344h32c0-23.199219-4.160156-45.519531-11.761719-66.160156zm0 0" fill="#da4453"/><path d="m24 432c-4.425781 0-8-3.574219-8-8 0-13.230469 10.769531-24 24-24 4.425781 0 8 3.574219 8 8s-3.574219 8-8 8c-4.414062 0-8 3.585938-8 8 0 4.425781-3.574219 8-8 8zm0 0"/><path d="m24 512c-4.425781 0-8-3.574219-8-8v-80c0-4.425781 3.574219-8 8-8s8 3.574219 8 8v80c0 4.425781-3.574219 8-8 8zm0 0"/><path d="m472 432c-4.425781 0-8-3.574219-8-8 0-4.414062-3.585938-8-8-8-4.425781 0-8-3.574219-8-8s3.574219-8 8-8c13.230469 0 24 10.769531 24 24 0 4.425781-3.574219 8-8 8zm0 0"/><path d="m472 512c-4.425781 0-8-3.574219-8-8v-80c0-4.425781 3.574219-8 8-8s8 3.574219 8 8v80c0 4.425781-3.574219 8-8 8zm0 0"/><path d="m488 512h-480c-4.425781 0-8-3.574219-8-8s3.574219-8 8-8h480c4.425781 0 8 3.574219 8 8s-3.574219 8-8 8zm0 0"/><path d="m456 416h-416c-4.425781 0-8-3.574219-8-8s3.574219-8 8-8h416c4.425781 0 8 3.574219 8 8s-3.574219 8-8 8zm0 0"/><path d="m440 416c-4.425781 0-8-3.574219-8-8 0-101.464844-82.535156-184-184-184s-184 82.535156-184 184c0 4.425781-3.574219 8-8 8s-8-3.574219-8-8c0-110.28125 89.71875-200 200-200s200 89.71875 200 200c0 4.425781-3.574219 8-8 8zm0 0"/><path d="m104 416c-2.046875 0-4.097656-.785156-5.65625-2.34375-3.128906-3.128906-3.128906-8.183594 0-11.3125l187.128906-187.121094c3.128906-3.125 8.183594-3.125 11.3125 0 3.125 3.128906 3.125 8.183594 0 11.3125l-187.128906 187.121094c-1.558594 1.558594-3.609375 2.34375-5.65625 2.34375zm0 0"/><path d="m273.703125 416c-2.046875 0-4.09375-.785156-5.65625-2.34375-3.125-3.128906-3.125-8.183594 0-11.3125l122.304687-122.304688c3.128907-3.128906 8.183594-3.128906 11.3125 0 3.128907 3.128907 3.128907 8.183594 0 11.3125l-122.304687 122.304688c-1.558594 1.558594-3.605469 2.34375-5.65625 2.34375zm0 0"/><path d="m392 416c-2.046875 0-4.097656-.785156-5.65625-2.34375l-187.128906-187.121094c-3.125-3.128906-3.125-8.183594 0-11.3125 3.128906-3.125 8.183594-3.125 11.3125 0l187.128906 187.121094c3.128906 3.128906 3.128906 8.183594 0 11.3125-1.558594 1.558594-3.609375 2.34375-5.65625 2.34375zm0 0"/><path d="m222.28125 416c-2.050781 0-4.097656-.785156-5.65625-2.34375l-122.296875-122.304688c-3.128906-3.128906-3.128906-8.183593 0-11.3125 3.128906-3.128906 8.183594-3.128906 11.3125 0l122.296875 122.304688c3.125 3.128906 3.125 8.183594 0 11.3125-1.5625 1.558594-3.609375 2.34375-5.65625 2.34375zm0 0"/><path d="m248 224c-4.425781 0-8-3.574219-8-8v-176c0-4.425781 3.574219-8 8-8s8 3.574219 8 8v176c0 4.425781-3.574219 8-8 8zm0 0"/><path d="m248 48c-13.230469 0-24-10.769531-24-24s10.769531-24 24-24 24 10.769531 24 24-10.769531 24-24 24zm0-32c-4.414062 0-8 3.585938-8 8s3.585938 8 8 8 8-3.585938 8-8-3.585938-8-8-8zm0 0"/><path d="m328 288c-2.046875 0-4.097656-.785156-5.65625-2.34375-3.128906-3.128906-3.128906-8.183594 0-11.3125l107.710938-107.710938c3.128906-3.128906 8.183593-3.128906 11.3125 0 3.128906 3.128907 3.128906 8.183594 0 11.3125l-107.710938 107.710938c-1.558594 1.558594-3.609375 2.34375-5.65625 2.34375zm0 0"/><path d="m439.832031 181.648438c-5.015625 0-8.089843-2.015626-9.777343-3.695313-13.046876-13.074219 13.671874-47.617187 16.976562-50.921875 9.039062-9.054688 24.863281-9.070312 33.9375 0 4.535156 4.527344 7.03125 10.5625 7.03125 16.96875 0 6.414062-2.503906 12.449219-7.03125 16.976562-5.3125 5.304688-27.710938 20.671876-41.136719 20.671876zm24.167969-45.648438c-2.144531 0-4.152344.832031-5.648438 2.34375-4.984374 4.976562-13.398437 19.488281-15.519531 26.808594 8.023438-2.222656 22.664063-11.328125 26.832031-15.496094 1.503907-1.503906 2.335938-3.511719 2.335938-5.65625 0-2.136719-.832031-4.144531-2.34375-5.65625s-3.519531-2.34375-5.65625-2.34375zm0 0"/><path d="m50.929688 199.855469c-13.539063 0-38.175782-17.191407-43.875-22.886719-9.351563-9.351562-9.351563-24.570312-.007813-33.9375 9.089844-9.0625 24.898437-9.0625 33.953125 0 .367188.367188 33.398438 39.167969 19.3125 53.257812-1.632812 1.632813-4.578125 3.566407-9.382812 3.566407zm0-15.992188v7.992188l.085937-8c-.023437 0-.054687 0-.085937.007812zm-26.90625-31.863281c-2.136719 0-4.144532.832031-5.65625 2.34375-3.121094 3.121094-3.121094 8.191406 0 11.3125 4.503906 4.496094 20.082031 14.519531 28.753906 17.414062-2.816406-8.253906-12.503906-23.796874-17.441406-28.726562-1.511719-1.511719-3.511719-2.34375-5.65625-2.34375zm0 0"/><path d="m32 264c-4.425781 0-8-3.574219-8-8v-80c0-4.425781 3.574219-8 8-8s8 3.574219 8 8v80c0 4.425781-3.574219 8-8 8zm0 0"/><path d="m160.015625 303.984375c-2.046875 0-4.09375-.785156-5.65625-2.34375l-105.359375-105.351563c-3.128906-3.128906-3.128906-8.183593 0-11.3125 3.128906-3.128906 8.183594-3.128906 11.3125 0l105.359375 105.351563c3.128906 3.128906 3.128906 8.183594 0 11.3125-1.558594 1.558594-3.609375 2.34375-5.65625 2.34375zm0 0"/><path d="m392.007812 368c-2.9375 0-5.761718-1.617188-7.167968-4.425781-1.976563-3.949219-.375-8.757813 3.574218-10.734375l80-40c3.960938-1.953125 8.753907-.375 10.738282 3.574218 1.976562 3.953126.375 8.761719-3.578125 10.738282l-80 40c-1.140625.574218-2.367188.847656-3.566407.847656zm0 0"/><path d="m175.550781 238.144531c-2.796875 0-5.503906-1.464843-6.976562-4.074219l-39.542969-70.140624c-2.167969-3.851563-.816406-8.730469 3.039062-10.898438 3.859376-2.183594 8.730469-.816406 10.898438 3.039062l39.542969 70.144532c2.167969 3.847656.816406 8.730468-3.039063 10.898437-1.242187.703125-2.59375 1.03125-3.921875 1.03125zm0 0"/><path d="m312 234.929688c-.929688 0-1.878906-.167969-2.808594-.503907-4.136718-1.546875-6.230468-6.160156-4.6875-10.296875l40-106.929687c1.550782-4.136719 6.167969-6.230469 10.296875-4.6875 4.128907 1.542969 6.230469 6.160156 4.6875 10.296875l-40 106.925781c-1.199219 3.210937-4.25 5.195313-7.488281 5.195313zm0 0"/><path d="m96.007812 368c-.296874 0-.59375-.015625-.886718-.046875l-72-8c-4.394532-.496094-7.554688-4.449219-7.074219-8.832031.496094-4.394532 4.527344-7.511719 8.832031-7.074219l72 8c4.394532.496094 7.554688 4.449219 7.074219 8.832031-.449219 4.097656-3.921875 7.121094-7.945313 7.121094zm0 0"/></svg>