<svg id="Capa_1" enable-background="new 0 0 512 512" height="512" viewBox="0 0 512 512" width="512" xmlns="http://www.w3.org/2000/svg" xmlns:xlink="http://www.w3.org/1999/xlink"><linearGradient id="SVGID_1_" gradientUnits="userSpaceOnUse" x1="256" x2="256" y1="512" y2="0"><stop offset="0" stop-color="#fd3a84"/><stop offset="1" stop-color="#ffa68d"/></linearGradient><g><g><g><path d="m432.517 90c-12.426 0-22.5 10.073-22.5 22.5v99.5h-30v-159.5c0-12.427-10.074-22.5-22.5-22.5s-22.5 10.073-22.5 22.5v159.5h-30v-189.5c0-12.427-10.074-22.5-22.5-22.5s-22.5 10.073-22.5 22.5v189.5h-30v-159.5c0-12.427-10.074-22.5-22.5-22.5s-22.5 10.073-22.5 22.5v267.073l-76.82-76.82c-11.715-11.715-30.71-11.715-42.426 0-11.717 11.717-11.717 30.712 0 42.427 178.217 178.216 155.857 226.82 254.246 226.82 74.559 0 135-60.441 135-135v-264.5c0-12.427-10.075-22.5-22.5-22.5z" fill="url(#SVGID_1_)"/></g></g></g></svg>