{
	"asset":{
		"version":"2.0",
		"generator":"Created using the official Cinema 4D glTF Exporter 1.000x284978"
	},
	"scenes":[{
		"nodes":[0]
	}],
	"nodes":[{
		"name":"Avatar",
		"children":[1,
		2,
		3,
		6,
		9]
	},
	{
		"name":"Hair",
		"translation":[-0.0007730429642833769,
		170.34811401367188,
		-0.5182101726531982],
		"rotation":[0.4349641501903534,
		-0.5213544964790344,
		0.5637327432632446,
		0.4703201949596405],
		"scale":[1.0,
		1.0,
		1.0],
		"mesh":0
	},
	{
		"name":"Shirt",
		"translation":[0.0,
		116.55735778808594,
		1.9244633913040162],
		"rotation":[0.0,
		0.0,
		0.0,
		-1.0],
		"scale":[1.0,
		1.0,
		1.0],
		"mesh":1
	},
	{
		"name":"LeftThigh",
		"translation":[0.7931466102600098,
		72.18700408935547,
		2.090038776397705],
		"rotation":[0.0,
		-0.9961947202682495,
		0.0,
		-0.08715574443340302],
		"scale":[1.0,
		1.0,
		1.0],
		"mesh":2,
		"children":[4,
		5]
	},
	{
		"name":"LeftPerna",
		"translation":[-9.734281539916993,
		-34.3794059753418,
		5.54958438873291],
		"rotation":[-7.833317285769223e-16,
		-0.001334583736024797,
		1.0454226012005231e-18,
		-0.9999991059303284],
		"scale":[1.0,
		1.0,
		1.0],
		"mesh":3
	},
	{
		"name":"LeftFoot",
		"translation":[-8.617974281311036,
		-53.433677673339847,
		4.727469444274902],
		"rotation":[0.000045039392716716978,
		0.9958284497261047,
		0.00010366302740294486,
		-0.09124545753002167],
		"scale":[1.0,
		1.0,
		1.0],
		"mesh":4
	},
	{
		"name":"RightThigh",
		"translation":[0.0,
		72.18700408935547,
		-1.3935171365737916],
		"rotation":[0.0,
		0.0,
		0.0,
		-1.0],
		"scale":[1.0,
		1.0,
		1.0],
		"mesh":5,
		"children":[7,
		8]
	},
	{
		"name":"RightPerna",
		"translation":[-9.579207420349121,
		-33.4705810546875,
		5.2720537185668949],
		"rotation":[4.440892098500626e-16,
		-4.440892098500626e-16,
		-1.9721522630525297e-31,
		-1.0],
		"scale":[1.0,
		1.0,
		1.0],
		"mesh":6
	},
	{
		"name":"RightFoot",
		"translation":[-10.101092338562012,
		-53.17713928222656,
		0.3243478238582611],
		"rotation":[-0.00010719399870140478,
		-0.004106075502932072,
		-0.000035833174479193988,
		0.9999915361404419],
		"scale":[1.0,
		1.0,
		1.0],
		"mesh":7
	},
	{
		"name":"UpperBody",
		"children":[10,
		11,
		12]
	},
	{
		"name":"ArmLeft",
		"translation":[-8.551584243774414,
		-0.37694114446640017,
		0.0],
		"rotation":[0.0,
		0.0,
		0.0,
		-1.0],
		"scale":[1.0,
		1.0,
		1.0],
		"mesh":8
	},
	{
		"name":"ArmRight",
		"translation":[-35.413307189941409,
		136.02978515625,
		0.07772953808307648],
		"rotation":[7.450026817679145e-9,
		-0.9999256730079651,
		-9.084150098814803e-11,
		0.012192539870738984],
		"scale":[1.0,
		1.0,
		1.0],
		"mesh":9
	},
	{
		"name":"Head",
		"translation":[0.0,
		165.06895446777345,
		0.0],
		"rotation":[0.0,
		0.0,
		0.0,
		-1.0],
		"scale":[1.0,
		1.0,
		1.0],
		"mesh":10,
		"children":[13]
	},
	{
		"name":"Pescoco",
		"translation":[0.0,
		-165.06895446777345,
		-2.220446049250313e-16],
		"rotation":[0.0,
		0.0,
		0.0,
		-1.0],
		"scale":[1.2999999523162842,
		1.0099999904632569,
		1.149999976158142],
		"mesh":11
	}],
	"bufferViews":[{
		"buffer":0,
		"byteOffset":0,
		"byteLength":2244,
		"target":34963
	},
	{
		"buffer":0,
		"byteOffset":2244,
		"byteLength":8128,
		"target":34962,
		"byteStride":32
	},
	{
		"buffer":1,
		"byteOffset":0,
		"byteLength":6864,
		"target":34963
	},
	{
		"buffer":1,
		"byteOffset":6864,
		"byteLength":28992,
		"target":34962,
		"byteStride":32
	},
	{
		"buffer":2,
		"byteOffset":0,
		"byteLength":9264,
		"target":34963
	},
	{
		"buffer":2,
		"byteOffset":9264,
		"byteLength":31584,
		"target":34962,
		"byteStride":32
	},
	{
		"buffer":3,
		"byteOffset":0,
		"byteLength":6600,
		"target":34963
	},
	{
		"buffer":3,
		"byteOffset":6600,
		"byteLength":23552,
		"target":34962,
		"byteStride":32
	},
	{
		"buffer":4,
		"byteOffset":0,
		"byteLength":672,
		"target":34963
	},
	{
		"buffer":4,
		"byteOffset":672,
		"byteLength":2752,
		"target":34962,
		"byteStride":32
	},
	{
		"buffer":5,
		"byteOffset":0,
		"byteLength":9264,
		"target":34963
	},
	{
		"buffer":5,
		"byteOffset":9264,
		"byteLength":31584,
		"target":34962,
		"byteStride":32
	},
	{
		"buffer":6,
		"byteOffset":0,
		"byteLength":6600,
		"target":34963
	},
	{
		"buffer":6,
		"byteOffset":6600,
		"byteLength":23552,
		"target":34962,
		"byteStride":32
	},
	{
		"buffer":7,
		"byteOffset":0,
		"byteLength":672,
		"target":34963
	},
	{
		"buffer":7,
		"byteOffset":672,
		"byteLength":2752,
		"target":34962,
		"byteStride":32
	},
	{
		"buffer":8,
		"byteOffset":0,
		"byteLength":38136,
		"target":34963
	},
	{
		"buffer":8,
		"byteOffset":38136,
		"byteLength":128704,
		"target":34962,
		"byteStride":32
	},
	{
		"buffer":9,
		"byteOffset":0,
		"byteLength":38136,
		"target":34963
	},
	{
		"buffer":9,
		"byteOffset":38136,
		"byteLength":128704,
		"target":34962,
		"byteStride":32
	},
	{
		"buffer":10,
		"byteOffset":0,
		"byteLength":1344,
		"target":34963
	},
	{
		"buffer":10,
		"byteOffset":1344,
		"byteLength":4736,
		"target":34962,
		"byteStride":32
	},
	{
		"buffer":11,
		"byteOffset":0,
		"byteLength":1920,
		"target":34963
	},
	{
		"buffer":11,
		"byteOffset":1920,
		"byteLength":6336,
		"target":34962,
		"byteStride":32
	}],
	"meshes":[{
		"name":"Hair",
		"primitives":[{
			"attributes":{
				"POSITION":1,
				"NORMAL":2,
				"TEXCOORD_0":3
			},
			"indices":0
		}]
	},
	{
		"name":"Shirt",
		"primitives":[{
			"attributes":{
				"POSITION":5,
				"NORMAL":6,
				"TEXCOORD_0":7
			},
			"indices":4
		}]
	},
	{
		"name":"LeftThigh",
		"primitives":[{
			"attributes":{
				"POSITION":9,
				"NORMAL":10,
				"TEXCOORD_0":11
			},
			"indices":8
		}]
	},
	{
		"name":"LeftPerna",
		"primitives":[{
			"attributes":{
				"POSITION":13,
				"NORMAL":14,
				"TEXCOORD_0":15
			},
			"indices":12
		}]
	},
	{
		"name":"LeftFoot",
		"primitives":[{
			"attributes":{
				"POSITION":17,
				"NORMAL":18,
				"TEXCOORD_0":19
			},
			"indices":16
		}]
	},
	{
		"name":"RightThigh",
		"primitives":[{
			"attributes":{
				"POSITION":21,
				"NORMAL":22,
				"TEXCOORD_0":23
			},
			"indices":20
		}]
	},
	{
		"name":"RightPerna",
		"primitives":[{
			"attributes":{
				"POSITION":25,
				"NORMAL":26,
				"TEXCOORD_0":27
			},
			"indices":24
		}]
	},
	{
		"name":"RightFoot",
		"primitives":[{
			"attributes":{
				"POSITION":29,
				"NORMAL":30,
				"TEXCOORD_0":31
			},
			"indices":28
		}]
	},
	{
		"name":"ArmLeft",
		"primitives":[{
			"attributes":{
				"POSITION":33,
				"NORMAL":34,
				"TEXCOORD_0":35
			},
			"indices":32
		}]
	},
	{
		"name":"ArmRight",
		"primitives":[{
			"attributes":{
				"POSITION":37,
				"NORMAL":38,
				"TEXCOORD_0":39
			},
			"indices":36
		}]
	},
	{
		"name":"Head",
		"primitives":[{
			"attributes":{
				"POSITION":41,
				"NORMAL":42,
				"TEXCOORD_0":43
			},
			"indices":40
		}]
	},
	{
		"name":"Pescoco",
		"primitives":[{
			"attributes":{
				"POSITION":45,
				"NORMAL":46,
				"TEXCOORD_0":47
			},
			"indices":44
		}]
	}],
	"accessors":[{
		"bufferView":0,
		"type":"SCALAR",
		"componentType":5123,
		"count":1122,
		"byteOffset":0,
		"min":[0],
		"max":[253]
	},
	{
		"bufferView":1,
		"type":"VEC3",
		"componentType":5126,
		"count":254,
		"byteOffset":0,
		"min":[-10.064362525939942,
		-10.51427936553955,
		-9.980635643005371],
		"max":[11.228707313537598,
		10.302062034606934,
		9.91382122039795]
	},
	{
		"bufferView":1,
		"type":"VEC3",
		"componentType":5126,
		"count":254,
		"byteOffset":12,
		"min":[-0.9997620582580566,
		-0.9969885945320129,
		-0.9914448857307434],
		"max":[0.9970097541809082,
		0.9997457265853882,
		0.9987658858299255]
	},
	{
		"bufferView":1,
		"type":"VEC2",
		"componentType":5126,
		"count":254,
		"byteOffset":24,
		"min":[0.0,
		0.0],
		"max":[1.0,
		1.0]
	},
	{
		"bufferView":2,
		"type":"SCALAR",
		"componentType":5123,
		"count":3432,
		"byteOffset":0,
		"min":[0],
		"max":[905]
	},
	{
		"bufferView":3,
		"type":"VEC3",
		"componentType":5126,
		"count":906,
		"byteOffset":0,
		"min":[-33.847816467285159,
		-28.138975143432618,
		-7.920000076293945],
		"max":[33.96339416503906,
		29.969383239746095,
		4.920000076293945]
	},
	{
		"bufferView":3,
		"type":"VEC3",
		"componentType":5126,
		"count":906,
		"byteOffset":12,
		"min":[-0.9989063143730164,
		-0.9999688267707825,
		-1.0],
		"max":[0.9994375705718994,
		0.9998750686645508,
		1.0]
	},
	{
		"bufferView":3,
		"type":"VEC2",
		"componentType":5126,
		"count":906,
		"byteOffset":24,
		"min":[0.0,
		0.0],
		"max":[1.0,
		1.0]
	},
	{
		"bufferView":4,
		"type":"SCALAR",
		"componentType":5123,
		"count":4632,
		"byteOffset":0,
		"min":[0],
		"max":[986]
	},
	{
		"bufferView":5,
		"type":"VEC3",
		"componentType":5126,
		"count":987,
		"byteOffset":0,
		"min":[-17.635404586791993,
		-17.409181594848634,
		-4.409999847412109],
		"max":[-0.23952990770339967,
		20.157594680786134,
		9.40999984741211]
	},
	{
		"bufferView":5,
		"type":"VEC3",
		"componentType":5126,
		"count":987,
		"byteOffset":12,
		"min":[-0.9999915361404419,
		-0.9983235597610474,
		-1.0],
		"max":[0.9998457431793213,
		0.9997658729553223,
		1.0]
	},
	{
		"bufferView":5,
		"type":"VEC2",
		"componentType":5126,
		"count":987,
		"byteOffset":24,
		"min":[0.0,
		0.0],
		"max":[1.0,
		1.0]
	},
	{
		"bufferView":6,
		"type":"SCALAR",
		"componentType":5123,
		"count":3300,
		"byteOffset":0,
		"min":[0],
		"max":[735]
	},
	{
		"bufferView":7,
		"type":"VEC3",
		"componentType":5126,
		"count":736,
		"byteOffset":0,
		"min":[-6.053953647613525,
		-21.40751838684082,
		-9.170000076293946],
		"max":[6.768050670623779,
		27.87828826904297,
		4.170000076293945]
	},
	{
		"bufferView":7,
		"type":"VEC3",
		"componentType":5126,
		"count":736,
		"byteOffset":12,
		"min":[-0.9999175071716309,
		-0.9997340440750122,
		-1.0],
		"max":[0.9999136924743652,
		0.4751489758491516,
		1.0]
	},
	{
		"bufferView":7,
		"type":"VEC2",
		"componentType":5126,
		"count":736,
		"byteOffset":24,
		"min":[0.0,
		0.0],
		"max":[1.0,
		1.0]
	},
	{
		"bufferView":8,
		"type":"SCALAR",
		"componentType":5123,
		"count":336,
		"byteOffset":0,
		"min":[0],
		"max":[85]
	},
	{
		"bufferView":9,
		"type":"VEC3",
		"componentType":5126,
		"count":86,
		"byteOffset":0,
		"min":[-4.253333568572998,
		-4.133333206176758,
		-2.4000000953674318],
		"max":[4.253333568572998,
		-1.1175563335418702,
		21.600000381469728]
	},
	{
		"bufferView":9,
		"type":"VEC3",
		"componentType":5126,
		"count":86,
		"byteOffset":12,
		"min":[-0.8759741187095642,
		-0.7181715369224548,
		-0.8975141048431397],
		"max":[0.8912463188171387,
		0.9853401780128479,
		0.9477316737174988]
	},
	{
		"bufferView":9,
		"type":"VEC2",
		"componentType":5126,
		"count":86,
		"byteOffset":24,
		"min":[0.0,
		0.0],
		"max":[1.0,
		1.0]
	},
	{
		"bufferView":10,
		"type":"SCALAR",
		"componentType":5123,
		"count":4632,
		"byteOffset":0,
		"min":[0],
		"max":[986]
	},
	{
		"bufferView":11,
		"type":"VEC3",
		"componentType":5126,
		"count":987,
		"byteOffset":0,
		"min":[-17.635404586791993,
		-17.409181594848634,
		-4.409999847412109],
		"max":[-0.23952990770339967,
		20.157594680786134,
		9.40999984741211]
	},
	{
		"bufferView":11,
		"type":"VEC3",
		"componentType":5126,
		"count":987,
		"byteOffset":12,
		"min":[-0.9999915361404419,
		-0.9983235597610474,
		-1.0],
		"max":[0.9998457431793213,
		0.9997658729553223,
		1.0]
	},
	{
		"bufferView":11,
		"type":"VEC2",
		"componentType":5126,
		"count":987,
		"byteOffset":24,
		"min":[0.0,
		0.0],
		"max":[1.0,
		1.0]
	},
	{
		"bufferView":12,
		"type":"SCALAR",
		"componentType":5123,
		"count":3300,
		"byteOffset":0,
		"min":[0],
		"max":[735]
	},
	{
		"bufferView":13,
		"type":"VEC3",
		"componentType":5126,
		"count":736,
		"byteOffset":0,
		"min":[-6.2929558753967289,
		-22.316341400146486,
		-9.170000076293946],
		"max":[6.529048442840576,
		26.969465255737306,
		4.170000076293945]
	},
	{
		"bufferView":13,
		"type":"VEC3",
		"componentType":5126,
		"count":736,
		"byteOffset":12,
		"min":[-0.9999175071716309,
		-0.9997340440750122,
		-1.0],
		"max":[0.9999136924743652,
		0.47514891624450686,
		1.0]
	},
	{
		"bufferView":13,
		"type":"VEC2",
		"componentType":5126,
		"count":736,
		"byteOffset":24,
		"min":[0.0,
		0.0],
		"max":[1.0,
		1.0]
	},
	{
		"bufferView":14,
		"type":"SCALAR",
		"componentType":5123,
		"count":336,
		"byteOffset":0,
		"min":[0],
		"max":[85]
	},
	{
		"bufferView":15,
		"type":"VEC3",
		"componentType":5126,
		"count":86,
		"byteOffset":0,
		"min":[-4.253333568572998,
		-4.133333206176758,
		-2.4000000953674318],
		"max":[4.253333568572998,
		-1.1175563335418702,
		21.600000381469728]
	},
	{
		"bufferView":15,
		"type":"VEC3",
		"componentType":5126,
		"count":86,
		"byteOffset":12,
		"min":[-0.8759741187095642,
		-0.7181715369224548,
		-0.8975141048431397],
		"max":[0.8912463188171387,
		0.9853401780128479,
		0.9477316737174988]
	},
	{
		"bufferView":15,
		"type":"VEC2",
		"componentType":5126,
		"count":86,
		"byteOffset":24,
		"min":[0.0,
		0.0],
		"max":[1.0,
		1.0]
	},
	{
		"bufferView":16,
		"type":"SCALAR",
		"componentType":5123,
		"count":19068,
		"byteOffset":0,
		"min":[0],
		"max":[4021]
	},
	{
		"bufferView":17,
		"type":"VEC3",
		"componentType":5126,
		"count":4022,
		"byteOffset":0,
		"min":[32.57683563232422,
		126.39225769042969,
		-0.7599999904632568],
		"max":[92.51974487304688,
		145.99514770507813,
		2.759999990463257]
	},
	{
		"bufferView":17,
		"type":"VEC3",
		"componentType":5126,
		"count":4022,
		"byteOffset":12,
		"min":[-0.9999997019767761,
		-1.0,
		-1.0],
		"max":[0.9999977350234985,
		1.0,
		1.0]
	},
	{
		"bufferView":17,
		"type":"VEC2",
		"componentType":5126,
		"count":4022,
		"byteOffset":24,
		"min":[0.0,
		0.0],
		"max":[1.0,
		1.0]
	},
	{
		"bufferView":18,
		"type":"SCALAR",
		"componentType":5123,
		"count":19068,
		"byteOffset":0,
		"min":[0],
		"max":[4021]
	},
	{
		"bufferView":19,
		"type":"VEC3",
		"componentType":5126,
		"count":4022,
		"byteOffset":0,
		"min":[-9.632411003112793,
		-10.039934158325196,
		-0.7599999904632568],
		"max":[50.31049728393555,
		9.562957763671875,
		2.759999990463257]
	},
	{
		"bufferView":19,
		"type":"VEC3",
		"componentType":5126,
		"count":4022,
		"byteOffset":12,
		"min":[-0.9999997019767761,
		-1.0,
		-1.0],
		"max":[0.9999977946281433,
		1.0,
		1.0]
	},
	{
		"bufferView":19,
		"type":"VEC2",
		"componentType":5126,
		"count":4022,
		"byteOffset":24,
		"min":[0.0,
		0.0],
		"max":[1.0,
		1.0]
	},
	{
		"bufferView":20,
		"type":"SCALAR",
		"componentType":5123,
		"count":672,
		"byteOffset":0,
		"min":[0],
		"max":[147]
	},
	{
		"bufferView":21,
		"type":"VEC3",
		"componentType":5126,
		"count":148,
		"byteOffset":0,
		"min":[-10.399999618530274,
		-12.161600112915039,
		-8.111400604248047],
		"max":[10.399999618530274,
		14.90506649017334,
		8.328775405883789]
	},
	{
		"bufferView":21,
		"type":"VEC3",
		"componentType":5126,
		"count":148,
		"byteOffset":12,
		"min":[-0.9974245429039002,
		-0.9999996423721314,
		-0.9829489588737488],
		"max":[0.997618556022644,
		1.0,
		0.9849810600280762]
	},
	{
		"bufferView":21,
		"type":"VEC2",
		"componentType":5126,
		"count":148,
		"byteOffset":24,
		"min":[0.0,
		0.0],
		"max":[1.0,
		1.0]
	},
	{
		"bufferView":22,
		"type":"SCALAR",
		"componentType":5123,
		"count":960,
		"byteOffset":0,
		"min":[0],
		"max":[197]
	},
	{
		"bufferView":23,
		"type":"VEC3",
		"componentType":5126,
		"count":198,
		"byteOffset":0,
		"min":[-4.329663276672363,
		143.6016387939453,
		-4.329663276672363],
		"max":[4.329663276672363,
		152.82981872558595,
		4.329663276672363]
	},
	{
		"bufferView":23,
		"type":"VEC3",
		"componentType":5126,
		"count":198,
		"byteOffset":12,
		"min":[-0.9970776438713074,
		-0.07417242228984833,
		-0.9970776438713074],
		"max":[0.9970776438713074,
		0.24054072797298432,
		0.9970776438713074]
	},
	{
		"bufferView":23,
		"type":"VEC2",
		"componentType":5126,
		"count":198,
		"byteOffset":24,
		"min":[0.0,
		0.0],
		"max":[1.0,
		1.0]
	}],
	"buffers":[{
		"uri":"data:application/octet-stream;base64,",
		"byteLength":10372
	},
	{
		"uri":"data:application/octet-stream;base64,",
		"byteLength":35856
	},
	{
		"uri":"data:application/octet-stream;base64,",
		"byteLength":40848
	},
	{
		"uri":"data:application/octet-stream;base64,",
		"byteLength":30152
	},
	{
		"uri":"data:application/octet-stream;base64,",
		"byteLength":3424
	},
	{
		"uri":"data:application/octet-stream;base64,",
		"byteLength":40848
	},
	{
		"uri":"data:application/octet-stream;base64,",
		"byteLength":30152
	},
	{
		"uri":"data:application/octet-stream;base64,",
		"byteLength":3424
	},
	{
		"uri":"data:application/octet-stream;base64,",
		"byteLength":166840
	},
	{
		"uri":"data:application/octet-stream;base64,",
		"byteLength":166840
	},
	{
		"uri":"data:application/octet-stream;base64,",
		"byteLength":6080
	},
	{
		"uri":"data:application/octet-stream;base64,",
		"byteLength":8256
	}]
}