<svg width="59" height="39" viewBox="0 0 59 39" fill="none" xmlns="http://www.w3.org/2000/svg">
<g clip-path="url(#clip0)">
<path d="M18.9561 27.0679L26.207 3.00781H33.5459L22.4058 35H15.5283L4.43213 3.00781H11.749L18.9561 27.0679Z" fill="#16171E"/>
<path d="M18.9561 27.0679L16.0822 27.9287L18.9473 37.4936L21.8284 27.9335L18.9561 27.0679ZM26.207 3.00781V0.0078125H23.9779L23.3346 2.14216L26.207 3.00781ZM33.5459 3.00781L36.379 3.99436L37.7672 0.0078125H33.5459V3.00781ZM22.4058 35V38H24.5378L25.2389 35.9865L22.4058 35ZM15.5283 35L12.694 35.9831L13.3935 38H15.5283V35ZM4.43213 3.00781V0.0078125H0.216282L1.59777 3.99088L4.43213 3.00781ZM11.749 3.00781L14.6229 2.14697L13.9821 0.0078125H11.749V3.00781ZM21.8284 27.9335L29.0794 3.87347L23.3346 2.14216L16.0837 26.2022L21.8284 27.9335ZM26.207 6.00781H33.5459V0.0078125H26.207V6.00781ZM30.7127 2.02127L19.5726 34.0135L25.2389 35.9865L36.379 3.99436L30.7127 2.02127ZM22.4058 32H15.5283V38H22.4058V32ZM18.3627 34.0169L7.26648 2.02474L1.59777 3.99088L12.694 35.9831L18.3627 34.0169ZM4.43213 6.00781H11.749V0.0078125H4.43213V6.00781ZM8.87518 3.86865L16.0822 27.9287L21.8299 26.207L14.6229 2.14697L8.87518 3.86865Z" fill="#16171E"/>
<path d="M31.2227 35V3.00781H41.0664C43.8789 3.00781 46.3911 3.64502 48.603 4.91943C50.8296 6.1792 52.5654 7.98096 53.8105 10.3247C55.0557 12.6538 55.6782 15.3052 55.6782 18.2788V19.751C55.6782 22.7246 55.063 25.3687 53.8325 27.6831C52.6167 29.9976 50.8955 31.792 48.6689 33.0664C46.4424 34.3408 43.9302 34.9854 41.1323 35H31.2227ZM37.8145 8.34717V29.7046H41.0005C43.5786 29.7046 45.5488 28.8623 46.9111 27.1777C48.2734 25.4932 48.9692 23.0835 48.9985 19.9487V18.2568C48.9985 15.0049 48.3247 12.5439 46.9771 10.874C45.6294 9.18945 43.6592 8.34717 41.0664 8.34717H37.8145Z" fill="#16171E"/>
<path d="M31.2227 35H28.2227V38H31.2227V35ZM31.2227 3.00781V0.0078125H28.2227V3.00781H31.2227ZM48.603 4.91943L47.1054 7.51885L47.1155 7.52471L47.1257 7.53048L48.603 4.91943ZM53.8105 10.3247L51.1612 11.7322L51.1649 11.7391L53.8105 10.3247ZM53.8325 27.6831L51.1836 26.2748L51.1801 26.2814L51.1767 26.2879L53.8325 27.6831ZM41.1323 35V38H41.1402L41.148 38L41.1323 35ZM37.8145 8.34717V5.34717H34.8145V8.34717H37.8145ZM37.8145 29.7046H34.8145V32.7046H37.8145V29.7046ZM48.9985 19.9487L51.9984 19.9768L51.9985 19.9627V19.9487H48.9985ZM46.9771 10.874L44.6344 12.7481L44.6425 12.7581L46.9771 10.874ZM34.2227 35V3.00781H28.2227V35H34.2227ZM31.2227 6.00781H41.0664V0.0078125H31.2227V6.00781ZM41.0664 6.00781C43.4081 6.00781 45.3943 6.53299 47.1054 7.51885L50.1007 2.32002C47.388 0.757046 44.3497 0.0078125 41.0664 0.0078125V6.00781ZM47.1257 7.53048C48.8357 8.49797 50.1736 9.87316 51.1612 11.7322L56.4599 8.91724C54.9573 6.08875 52.8235 3.86043 50.0803 2.30839L47.1257 7.53048ZM51.1649 11.7391C52.1494 13.5807 52.6782 15.7356 52.6782 18.2788H58.6782C58.6782 14.8748 57.962 11.727 56.4562 8.91035L51.1649 11.7391ZM52.6782 18.2788V19.751H58.6782V18.2788H52.6782ZM52.6782 19.751C52.6782 22.3003 52.1541 24.4493 51.1836 26.2748L56.4814 29.0914C57.9719 26.288 58.6782 23.1489 58.6782 19.751H52.6782ZM51.1767 26.2879C50.2211 28.107 48.8997 29.4777 47.1787 30.4627L50.1592 35.6701C52.8913 34.1063 55.0123 31.8881 56.4884 29.0783L51.1767 26.2879ZM47.1787 30.4627C45.4413 31.4572 43.4452 31.9878 41.1166 32L41.148 38C44.4152 37.9829 47.4435 37.2245 50.1592 35.6701L47.1787 30.4627ZM41.1323 32H31.2227V38H41.1323V32ZM34.8145 8.34717V29.7046H40.8145V8.34717H34.8145ZM37.8145 32.7046H41.0005V26.7046H37.8145V32.7046ZM41.0005 32.7046C44.293 32.7046 47.2016 31.5895 49.2438 29.0642L44.5785 25.2913C43.8961 26.1351 42.8642 26.7046 41.0005 26.7046V32.7046ZM49.2438 29.0642C51.1856 26.663 51.9655 23.4949 51.9984 19.9768L45.9987 19.9207C45.973 22.6721 45.3612 24.3233 44.5785 25.2913L49.2438 29.0642ZM51.9985 19.9487V18.2568H45.9985V19.9487H51.9985ZM51.9985 18.2568C51.9985 14.6568 51.2625 11.4073 49.3116 8.98997L44.6425 12.7581C45.3869 13.6806 45.9985 15.353 45.9985 18.2568H51.9985ZM49.3197 8.99994C47.2862 6.45816 44.3662 5.34717 41.0664 5.34717V11.3472C42.9521 11.3472 43.9726 11.9207 44.6344 12.7481L49.3197 8.99994ZM41.0664 5.34717H37.8145V11.3472H41.0664V5.34717Z" fill="#16171E"/>
<path d="M18.9561 27.0679L26.207 3.00781H33.5459L22.4058 35H15.5283L4.43213 3.00781H11.749L18.9561 27.0679Z" fill="white"/>
<path d="M31.2227 35V3.00781H41.0664C43.8789 3.00781 46.3911 3.64502 48.603 4.91943C50.8296 6.1792 52.5654 7.98096 53.8105 10.3247C55.0557 12.6538 55.6782 15.3052 55.6782 18.2788V19.751C55.6782 22.7246 55.063 25.3687 53.8325 27.6831C52.6167 29.9976 50.8955 31.792 48.6689 33.0664C46.4424 34.3408 43.9302 34.9854 41.1323 35H31.2227ZM37.8145 8.34717V29.7046H41.0005C43.5786 29.7046 45.5488 28.8623 46.9111 27.1777C48.2734 25.4932 48.9692 23.0835 48.9985 19.9487V18.2568C48.9985 15.0049 48.3247 12.5439 46.9771 10.874C45.6294 9.18945 43.6592 8.34717 41.0664 8.34717H37.8145Z" fill="white"/>
</g>
<defs>
<clipPath id="clip0">
<rect width="59" height="39" fill="white"/>
</clipPath>
</defs>
</svg>
